<svg width="153" height="108" viewBox="0 0 153 108" fill="none" xmlns="http://www.w3.org/2000/svg">
<path d="M115.554 68.4641C104.919 68.4641 96.2678 77.1155 96.2678 87.7499C96.2678 98.3843 104.919 107.036 115.554 107.036C126.19 107.036 134.839 98.3843 134.839 87.7499C134.839 77.1155 126.188 68.4641 115.554 68.4641ZM115.554 97.3928C110.236 97.3928 105.911 93.0678 105.911 87.7499C105.911 82.4319 110.236 78.107 115.554 78.107C120.872 78.107 125.196 82.4319 125.196 87.7499C125.196 93.0681 120.872 97.3928 115.554 97.3928Z" fill="black"/>
<path d="M49.6608 68.4641C39.0264 68.4641 30.375 77.1155 30.375 87.7499C30.375 98.3843 39.0264 107.036 49.6608 107.036C60.2952 107.036 68.9465 98.3843 68.9465 87.7499C68.9465 77.1155 60.2952 68.4641 49.6608 68.4641ZM49.6608 97.3928C44.3428 97.3928 40.0179 93.0678 40.0179 87.7499C40.0179 82.4319 44.3428 78.107 49.6608 78.107C54.9772 78.107 59.3037 82.4319 59.3037 87.7499C59.3037 93.0681 54.9787 97.3928 49.6608 97.3928Z" fill="black"/>
<path d="M128.541 13.2623C127.721 11.6343 126.055 10.6072 124.232 10.6072H98.8391V20.2501H121.259L134.387 46.3629L143.005 42.0298L128.541 13.2623Z" fill="black"/>
<path d="M101.089 83.0894H64.6072V92.7322H101.089V83.0894Z" fill="black"/>
<path d="M35.1962 83.0894H18.4822C15.819 83.0894 13.6609 85.2478 13.6609 87.9106C13.6609 90.5738 15.8193 92.7319 18.4822 92.7319H35.1965C37.8597 92.7319 40.0178 90.5735 40.0178 87.9106C40.0178 85.2475 37.8594 83.0894 35.1962 83.0894Z" fill="black"/>
<path d="M151.988 53.6143L142.504 41.4C141.593 40.2235 140.187 39.5356 138.697 39.5356H103.661V5.78565C103.661 3.12249 101.502 0.964355 98.8395 0.964355H18.4822C15.819 0.964355 13.6609 3.12279 13.6609 5.78565C13.6609 8.4485 15.8193 10.6069 18.4822 10.6069H94.0179V44.3569C94.0179 47.02 96.1763 49.1782 98.8392 49.1782H136.336L143.357 58.2231V83.0889H130.018C127.355 83.0889 125.196 85.2473 125.196 87.9102C125.196 90.5733 127.355 92.7315 130.018 92.7315H148.178C150.842 92.7315 153 90.573 153 87.9102V56.5715C153 55.5011 152.643 54.4597 151.988 53.6143Z" fill="black"/>
<path d="M34.875 58.6609H12.6963C10.0331 58.6609 7.875 60.8193 7.875 63.4822C7.875 66.1453 10.0334 68.3035 12.6963 68.3035H34.8747C37.5379 68.3035 39.696 66.145 39.696 63.4822C39.6963 60.8193 37.5379 58.6609 34.875 58.6609Z" fill="black"/>
<path d="M45.9642 39.6963H4.82129C2.15844 39.6963 0 41.8547 0 44.5179C0 47.181 2.15844 49.3392 4.82129 49.3392H45.9642C48.6274 49.3392 50.7855 47.1807 50.7855 44.5179C50.7855 41.855 48.6274 39.6963 45.9642 39.6963Z" fill="black"/>
<path d="M53.8393 20.7322H12.6963C10.0331 20.7322 7.875 22.8906 7.875 25.5535C7.875 28.2166 10.0334 30.3748 12.6963 30.3748H53.8393C56.5024 30.3748 58.6605 28.2163 58.6605 25.5535C58.6608 22.8906 56.5024 20.7322 53.8393 20.7322Z" fill="black"/>
</svg>
