<svg width="153" height="134" viewBox="0 0 153 134" fill="none" xmlns="http://www.w3.org/2000/svg">
<path d="M65.9178 22.1023C62.3107 18.2046 59.7286 20.381 57.3056 15.3485C54.9099 10.1734 49.4937 5.30538 43.8307 1.31993C40.4812 -1.03735 34.0398 0.897815 34.1275 6.37986C34.2207 12.1524 39.9823 16.6696 31.0192 19.5313C20.0935 22.8589 17.7143 26.8059 12.8681 32.1948C11.4154 33.9107 9.71048 33.4063 7.49026 33.4063C5.5551 33.4063 3.4171 33.8558 1.18591 36.9916C-0.453219 39.294 -0.836962 44.2388 2.95661 46.8428C8.04943 50.3349 9.63922 55.0165 12.8736 59.2925C16.9139 64.6539 22.4617 69.988 29.1334 69.5823L31.6222 79.3129L42.8713 76.3691L44.7243 83.8356L55.9734 80.8917L58.9173 92.1409L70.1664 89.197L73.1103 100.446L84.3594 97.5023L87.3033 108.751L98.5524 105.808L101.496 117.057L112.745 114.113L115.689 125.362L126.938 122.418L129.882 133.667L153 110.325L65.9178 22.1023ZM28.4371 64.1989C25.2082 64.1989 21.2337 61.288 17.2428 55.9923C16.3986 54.874 15.6475 53.6625 14.8526 52.3797C12.8243 49.1014 10.5218 45.3901 6.05396 42.3256C5.05623 41.6403 5.65377 40.1712 5.65377 40.1712C6.55831 38.8938 6.88723 38.8938 7.48478 38.8938C11.5086 38.8938 14.1619 39.1515 16.9413 35.8677C21.8751 30.3857 25.1972 26.2029 33.3655 24.5967C34.9114 24.2952 36.2052 23.8073 37.8114 22.3655C43.2332 17.6235 41.3254 12.1634 40.4044 9.54299C39.9878 8.35339 39.626 7.32277 39.5821 6.14413C39.8398 5.01483 40.7443 5.85906 40.7443 5.85906C56.4942 16.9712 50.0967 20.7154 59.6957 24.4706C60.7044 24.8653 61.1649 25.0462 61.8995 25.8356L77.8687 43.3124C74.7768 46.64 70.6543 52.1165 66.4277 53.35C64.7557 53.8379 30.1695 64.1989 28.4371 64.1989ZM130.875 115.719C124.378 117.419 127.086 116.711 119.625 118.663C117.959 112.293 118.354 113.8 116.682 107.414C110.279 109.091 111.813 108.686 105.432 110.358C103.481 102.913 104.182 105.588 102.489 99.1086C95.9923 100.808 98.7004 100.101 91.2394 102.052C89.5728 95.6823 89.9675 97.1899 88.2955 90.8033C81.7993 92.5027 84.5074 91.7955 77.0464 93.7471C75.3798 87.377 75.7746 88.8846 74.1025 82.498C67.6995 84.1755 69.2345 83.7698 62.8534 85.4418C60.9073 78.0082 61.6035 80.667 59.9095 74.1927C53.5065 75.8702 55.047 75.4645 48.6604 77.1365C46.9938 70.7664 48.4795 76.0566 46.8075 69.67C39.8672 71.4846 42.0161 70.9254 35.5857 72.6084L34.5112 68.3982C44.505 65.5585 60.1672 60.8823 67.9791 58.6018C73.812 56.8969 77.5233 51.7492 81.9035 47.0292C81.9199 47.0127 81.9254 46.9853 81.9418 46.9634L145.303 110.325L132.788 122.961C132.371 121.448 132.536 122.062 130.875 115.719Z" fill="black"/>
<path d="M58.9172 31.1038C55.3703 26.3508 48.9728 25.6327 44.5652 28.911C39.6204 32.5456 34.1713 35.2646 28.6344 36.9147C21.9134 38.5758 19.0573 46.8811 23.3223 52.5386C25.1423 54.9561 27.8943 56.3431 30.8766 56.3431C36.5011 56.3431 52.4265 50.6308 57.3822 46.0752C61.724 42.2981 62.3928 35.7142 58.9172 31.1038ZM53.7805 41.9363C51.182 44.321 41.1938 49.1945 31.4357 50.8172C31.2493 50.8446 31.0629 50.8611 30.8766 50.8611C29.6924 50.8611 28.5028 50.3128 27.7025 49.2438C25.8112 46.7386 27.0227 42.9614 29.9446 42.2378C36.1832 40.3849 42.2189 37.4355 47.8106 33.324C49.9157 31.7616 52.8595 32.1508 54.5261 34.3766C56.2584 36.6845 55.935 40.0669 53.7805 41.9363Z" fill="black"/>
</svg>
