<svg width="512" height="512" viewBox="0 0 512 512" fill="none" xmlns="http://www.w3.org/2000/svg">
<g clip-path="url(#clip0)">
<path d="M512 256.006C512 397.402 397.394 512.004 256.004 512C114.606 512.004 3.20627e-07 397.402 3.20627e-07 256.006C-0.00699968 114.61 114.606 0 256.004 0C397.394 0 512 114.614 512 256.006Z" fill="#9D4EDD"/>
<path d="M508.189 299.821C507.953 299.563 507.663 299.239 507.557 299.133C507.398 298.974 507.228 298.891 507.068 298.737C506.59 298.193 419.267 210.93 419.105 210.776C418.628 210.232 418.248 209.826 418.078 209.654C411.21 202.786 403.305 201.029 399.484 200.175C398.295 199.912 397.073 199.853 395.866 199.697C395.843 199.672 395.817 199.649 395.793 199.624C395.309 199.102 365.954 169.805 365.461 169.292C340.313 142.174 300.53 125.333 255.999 125.333C200.025 125.333 150.52 155.487 130.341 200.122C124.523 198.872 118.359 198.881 112.499 200.182C108.693 201.028 100.788 202.785 93.92 209.653C92.681 210.892 81.86 222.254 84.353 238.463C85.608 246.653 89.862 253.247 95.291 258.101C95.797 258.609 127.193 290.007 127.221 290.036C126.473 298.536 124.865 309.955 121.746 325.46C121.497 326.683 121.564 327.952 121.935 329.142C124.742 338.202 128.502 344.807 133.461 349.34C133.98 349.889 151.034 367.002 151.466 367.405V379.2C151.466 381.655 152.729 383.731 154.557 385.09C154.994 385.677 278.332 509.014 278.919 509.451C279.313 509.981 279.776 510.416 280.289 510.822C395.694 499.964 488.745 412.515 508.189 299.821Z" fill="#7B2CBF"/>
<path d="M418.079 209.654C411.211 202.786 403.306 201.028 399.485 200.175C394.857 199.145 390.035 198.941 385.331 199.512C366.254 155.236 315.34 125.333 256 125.333C200.027 125.333 150.521 155.487 130.342 200.122C124.524 198.872 118.36 198.88 112.499 200.182C108.693 201.028 100.788 202.785 93.92 209.654C92.681 210.893 81.859 222.255 84.353 238.464C86.811 254.498 100.708 264.517 112.579 267.04C118.259 268.228 122.277 267.47 124.938 266.96C125.31 266.894 125.653 266.806 125.981 266.756C127.155 268.754 131.005 279.414 121.744 325.461C121.497 326.686 121.562 327.955 121.934 329.143C127.344 346.607 136.196 355.123 150.626 356.757C150.903 356.786 151.187 356.801 151.464 356.801V379.201C151.464 383.328 154.804 386.668 158.931 386.668C163.058 386.668 166.398 383.328 166.398 379.201V356.801H345.598V379.201C345.598 383.328 348.938 386.668 353.065 386.668C357.192 386.668 360.532 383.328 360.532 379.201V356.801C360.809 356.801 361.093 356.786 361.37 356.757C375.807 355.124 384.652 346.607 390.062 329.143C390.434 327.947 390.499 326.685 390.252 325.461C380.991 279.414 384.842 268.754 386.015 266.756C386.344 266.807 386.686 266.895 387.058 266.96C389.719 267.471 393.73 268.228 399.417 267.04C411.288 264.517 425.186 254.498 427.643 238.471C430.14 222.254 419.318 210.894 418.079 209.654ZM256 140.267C308.745 140.267 353.879 165.948 371.055 204.088C368.379 205.557 366.015 207.198 363.705 208.824C355.4 214.665 349.996 221.183 346.927 225.624C343.66 230.349 340.846 235.949 338.578 242.27C332.927 257.947 331.228 276.628 330.798 289.6H181.202C180.772 276.628 179.073 257.947 173.429 242.277C171.154 235.947 168.34 230.347 165.065 225.608C160.639 219.235 154.842 213.431 148.287 208.815C146.924 207.856 145.523 206.901 144.074 205.966C161.932 166.754 206.02 140.267 256 140.267ZM412.887 236.203C411.406 245.835 402.168 251.188 396.313 252.427C393.6 252.996 391.865 252.674 389.867 252.296C387.322 251.8 383.83 251.137 379.863 252.931C367.38 258.56 366.017 279.918 375.225 326.482C370.522 340.278 364.601 341.349 360.109 341.868H151.889C147.405 341.351 141.476 340.279 136.773 326.482C145.983 279.918 144.618 258.56 132.135 252.931C128.168 251.137 124.676 251.808 122.131 252.296C120.126 252.682 118.375 253.011 115.685 252.427C109.83 251.188 100.592 245.835 99.111 236.196C97.725 227.184 104.42 220.278 104.477 220.213C108.269 216.421 112.943 215.379 115.75 214.759C118.426 214.154 122.626 213.666 127.424 214.752C132.324 215.853 135.415 218.026 139.703 221.044C144.837 224.646 149.365 229.174 152.792 234.111C155.942 238.675 158.107 243.817 159.377 247.331C165.458 264.241 166.391 285.751 166.399 297.075C166.406 301.194 169.746 304.534 173.866 304.534H338.133C342.252 304.534 345.592 301.194 345.6 297.075C345.607 285.751 346.541 264.241 352.629 247.324C353.891 243.817 356.056 238.677 359.206 234.119C361.59 230.677 365.791 225.617 372.301 221.037C376.582 218.026 379.673 215.853 384.565 214.751C389.378 213.672 393.563 214.16 396.254 214.758C399.054 215.378 403.728 216.421 407.513 220.204C407.579 220.278 414.273 227.183 412.887 236.203Z" fill="#F4F6F9"/>
</g>
<defs>
<clipPath id="clip0">
<rect width="512" height="512" fill="white"/>
</clipPath>
</defs>
</svg>
