<svg width="141" height="142" viewBox="0 0 141 142" fill="none" xmlns="http://www.w3.org/2000/svg">
<g filter="url(#filter0_d)">
<path d="M131.296 100.346C119.392 88.4427 120.173 89.1968 119.838 88.9495L88.329 65.6859L100.552 53.4637C110.38 56.9656 121.506 54.5446 128.995 47.0563C137.153 38.8981 139.294 26.4255 134.323 16.02C133.165 13.5957 129.952 13.0465 128.054 14.9446L117.978 25.0212C116.459 26.5398 113.988 26.54 112.469 25.0212C110.946 23.4987 110.946 21.0351 112.469 19.5126L122.546 9.43577C124.446 7.5361 123.893 4.32384 121.47 3.16684C111.065 -1.80403 98.5924 0.337474 90.4339 8.49541C82.9438 15.9855 80.5257 27.1126 84.0265 36.9374L69.9296 51.0331C67.0594 48.8006 70.8468 52.6138 43.8143 23.9497L46.6481 21.1159C48.4405 19.3237 48.0669 16.3229 45.8979 15.0215L25.0351 2.50366C19.5662 -0.777699 12.5975 0.0800464 8.0877 4.58984C3.57817 9.09937 2.72016 16.0686 6.00152 21.5372L18.5194 42.4003C19.8229 44.5735 22.825 44.9392 24.6137 43.1505L27.2862 40.478C54.1787 68.9938 50.6391 65.1204 52.765 67.8539C52.8154 67.9186 52.8716 67.9758 52.9251 68.0366L40.4249 80.5357C30.6005 77.0348 19.4727 79.453 11.9831 86.9431C3.82494 95.1013 1.68344 107.574 6.65457 117.979C7.81338 120.404 11.0256 120.953 12.9238 119.055L23.0003 108.978C24.5197 107.459 26.9903 107.46 28.5092 108.978C30.0317 110.5 30.0317 112.964 28.5092 114.487L18.4321 124.563C16.5322 126.463 17.0849 129.675 19.5075 130.833C23.2476 132.619 27.2537 133.487 31.2318 133.487C38.3208 133.487 45.3178 130.73 50.5438 125.504C58.0339 118.014 60.452 106.887 56.9512 97.0617L67.6265 86.3872L92.4819 116.593C92.671 116.822 92.0471 116.183 103.164 127.3C107.211 131.347 112.591 133.445 117.882 133.445C121.763 133.445 125.597 132.314 128.818 129.995C138.645 122.917 139.803 108.853 131.296 100.346ZM30.2021 32.2151C28.692 30.6142 26.1606 30.5861 24.6137 32.1333L22.6325 34.1143L12.6817 17.529C11.2431 15.1314 11.619 12.0758 13.5963 10.0984C15.5736 8.12083 18.6292 7.74521 21.0266 9.18379L37.6119 19.1349L35.6306 21.1156C34.1409 22.6054 34.1056 25.0098 35.5512 26.5424C66.6119 59.4778 61.7259 54.5217 64.3776 56.5843L58.4661 62.4952C56.4231 59.868 61.1669 65.049 30.2021 32.2151ZM49.6032 93.392C48.4358 94.5594 48.1311 96.3357 48.8428 97.8254C52.3936 105.258 50.863 114.167 45.0352 119.995C41.3013 123.729 36.3034 125.699 31.2385 125.698C30.3275 125.698 29.4147 125.635 28.5063 125.506L34.0175 119.995C38.5844 115.428 38.5852 108.036 34.0175 103.469C29.4615 98.9123 22.0475 98.9126 17.4915 103.469L11.9803 108.98C11.1366 103.022 13.0864 96.8565 17.4915 92.4514C23.3196 86.623 32.2285 85.0933 39.6609 88.6435C41.1504 89.355 42.9264 89.0508 44.0943 87.8832L91.3743 40.6066C92.5417 39.4392 92.8464 37.6629 92.1349 36.1732C88.5841 28.741 90.1147 19.8316 95.9425 14.0037C100.348 9.59812 106.513 7.64858 112.471 8.49256L106.96 14.0037C104.752 16.2107 103.537 19.1455 103.537 22.2669C103.537 25.3882 104.752 28.3225 106.96 30.53C111.516 35.0863 118.93 35.0861 123.486 30.53L128.997 25.0188C129.841 30.9766 127.891 37.1421 123.486 41.5472C117.658 47.3753 108.748 48.9056 101.316 45.3551C99.827 44.6436 98.0505 44.9481 96.8829 46.1154L49.6032 93.392ZM73.1447 80.8692L82.7584 71.2563L92.5565 78.4903L80.8501 90.1966C72.8909 80.5245 73.3876 81.1074 73.1447 80.8692ZM124.264 123.674C119.721 126.946 113.018 126.137 108.672 121.791L98.377 111.497L85.8231 96.2406L98.894 83.1697L114.976 95.0434L125.787 105.855C130.729 110.796 130.411 119.247 124.264 123.674Z" fill="black"/>
<path d="M120.212 110.693L104.631 95.1116C103.11 93.5904 100.643 93.5904 99.1221 95.1116C97.6009 96.6328 97.6009 99.099 99.1221 100.62L114.703 116.201C116.224 117.722 118.691 117.722 120.212 116.201C121.733 114.68 121.733 112.214 120.212 110.693Z" fill="black"/>
</g>
<defs>
<filter id="filter0_d" x="0" y="0" width="141" height="142" filterUnits="userSpaceOnUse" color-interpolation-filters="sRGB">
<feFlood flood-opacity="0" result="BackgroundImageFix"/>
<feColorMatrix in="SourceAlpha" type="matrix" values="0 0 0 0 0 0 0 0 0 0 0 0 0 0 0 0 0 0 127 0"/>
<feOffset dy="4"/>
<feGaussianBlur stdDeviation="2"/>
<feColorMatrix type="matrix" values="0 0 0 0 0 0 0 0 0 0 0 0 0 0 0 0 0 0 0.25 0"/>
<feBlend mode="normal" in2="BackgroundImageFix" result="effect1_dropShadow"/>
<feBlend mode="normal" in="SourceGraphic" in2="effect1_dropShadow" result="shape"/>
</filter>
</defs>
</svg>
